<?xml version="1.0" standalone="no"?>
<!DOCTYPE svg PUBLIC "-//W3C//DTD SVG 20010904//EN"
 "http://www.w3.org/TR/2001/REC-SVG-20010904/DTD/svg10.dtd">
<svg version="1.0" xmlns="http://www.w3.org/2000/svg"
 width="1755.000000pt" height="515.000000pt" viewBox="0 0 1755.000000 515.000000"
 preserveAspectRatio="xMidYMid meet">

<g transform="translate(0.000000,515.000000) scale(0.100000,-0.100000)"
fill="#000000" stroke="none">
<path d="M2620 3835 l0 -1245 -1270 0 c-1122 0 -1270 -2 -1270 -15 0 -13 148
-15 1270 -15 l1270 0 0 -1245 c0 -1100 2 -1245 15 -1245 13 0 15 145 15 1245
l0 1245 1215 0 c1073 0 1215 2 1215 15 0 13 -142 15 -1215 15 l-1215 0 0 1245
c0 1100 -2 1245 -15 1245 -13 0 -15 -145 -15 -1245z"/>
<path d="M810 3795 l0 -945 620 0 620 0 -2 188 -3 187 -432 3 -433 2 0 195 0
195 375 0 375 0 0 185 0 185 -375 0 -375 0 0 185 0 185 405 0 405 0 -2 188 -3
187 -587 3 -588 2 0 -945z"/>
<path d="M3442 4730 c-179 -33 -392 -167 -498 -317 -64 -89 -85 -162 -85 -293
2 -265 69 -423 248 -575 93 -80 125 -122 154 -205 20 -58 22 -84 21 -237 l-1
-173 420 0 c230 0 419 3 419 8 0 4 -9 45 -20 92 -11 47 -20 115 -20 151 0 81
10 92 111 121 220 62 284 131 205 219 l-35 38 19 52 c23 68 18 79 -37 79 -38
0 -104 11 -151 26 -18 5 36 80 94 128 l45 37 -26 30 c-14 17 -25 35 -25 41 0
10 52 64 103 105 15 13 27 27 27 33 0 21 -59 62 -133 92 -102 42 -127 68 -134
144 -3 33 -12 70 -19 84 -8 14 -23 59 -34 100 -11 41 -28 86 -38 100 -32 44
-108 88 -184 105 -85 20 -345 29 -426 15z"/>
<path d="M5350 3520 l0 -860 565 0 565 0 0 170 0 170 -395 0 -395 0 0 180 0
180 340 0 340 0 0 170 0 170 -340 0 -340 0 0 170 0 170 365 0 365 0 0 170 0
170 -535 0 -535 0 0 -860z"/>
<path d="M4656 4154 c-91 -109 -165 -203 -163 -209 10 -28 46 -1 215 163 l184
177 -35 33 -34 33 -167 -197z"/>
<path d="M7090 3375 c-179 -383 -326 -700 -328 -705 -2 -6 57 -10 150 -10
l153 1 39 84 39 85 279 0 279 0 41 -85 40 -85 150 0 c95 0 148 4 146 10 -10
31 -654 1400 -658 1400 -3 0 -151 -313 -330 -695z m480 -261 c0 -2 -66 -4
-146 -4 -171 0 -163 -22 -67 178 l65 137 74 -154 c41 -84 74 -155 74 -157z"/>
<path d="M9810 3365 l0 -705 135 0 135 0 2 408 3 408 455 -393 c250 -217 474
-410 498 -429 l42 -35 0 710 0 711 -135 0 -135 0 -2 -410 -3 -411 -492 426
c-271 234 -495 425 -498 425 -3 0 -5 -317 -5 -705z"/>
<path d="M12292 3368 l3 -703 137 -3 138 -3 2 407 3 406 493 -426 c271 -234
495 -426 497 -426 3 0 4 318 3 708 l-3 707 -135 0 -135 0 -5 -406 -5 -406
-490 424 c-269 232 -493 423 -497 423 -5 0 -7 -316 -6 -702z"/>
<path d="M14575 4050 c-372 -45 -644 -367 -622 -740 16 -289 203 -537 476
-634 79 -28 97 -30 221 -31 114 0 147 4 210 23 288 90 487 341 501 632 l4 75
-295 0 -295 0 -3 -137 -3 -137 122 -3 122 -3 -47 -52 c-60 -66 -147 -111 -244
-124 -286 -40 -540 215 -492 492 25 145 120 272 247 332 57 26 83 32 158 35
123 5 194 -18 313 -105 23 -16 24 -15 118 78 l95 94 -53 48 c-62 57 -209 131
-288 146 -83 15 -178 20 -245 11z"/>
<path d="M16200 4039 c-166 -18 -310 -106 -361 -222 -30 -70 -37 -193 -15
-269 19 -66 63 -129 113 -162 21 -14 148 -70 283 -125 267 -109 290 -124 290
-189 0 -78 -68 -133 -189 -153 -138 -23 -298 39 -316 122 -4 17 -12 29 -18 26
-7 -2 -61 -21 -122 -42 -60 -21 -114 -41 -118 -45 -16 -14 35 -121 84 -174 60
-66 110 -97 215 -132 268 -90 596 14 697 220 84 172 31 399 -116 491 -23 15
-150 70 -282 123 -272 110 -284 119 -252 187 13 26 29 41 65 56 81 36 216 14
262 -41 14 -17 21 -16 142 27 l127 45 -25 49 c-74 147 -258 229 -464 208z"/>
<path d="M8370 3350 l0 -690 135 0 135 0 0 255 0 256 132 -3 131 -3 102 -250
101 -250 146 -3 147 -3 -111 273 c-60 150 -112 278 -115 285 -3 6 9 18 25 27
47 24 122 106 153 167 132 261 -35 578 -326 619 -38 5 -202 10 -362 10 l-293
0 0 -690z m666 389 c61 -29 88 -76 82 -143 -5 -63 -33 -107 -82 -130 -27 -13
-69 -16 -215 -16 l-181 0 0 155 0 155 177 0 c158 0 181 -2 219 -21z"/>
<path d="M11540 3345 l0 -685 145 0 145 0 0 685 0 685 -145 0 -145 0 0 -685z"/>
<path d="M4708 3857 c-160 -19 -168 -21 -168 -42 0 -21 5 -22 123 -29 67 -4
155 -9 195 -13 l72 -6 0 57 c0 66 23 63 -222 33z"/>
<path d="M4503 3723 c-7 -3 -13 -9 -13 -14 0 -10 316 -392 328 -397 4 -1 23
11 42 26 l34 29 -115 109 c-241 230 -264 251 -276 247z"/>
<path d="M6996 2145 c-99 -245 -183 -445 -186 -445 -4 0 -83 189 -176 420
l-169 420 -184 0 c-142 0 -182 -3 -178 -12 69 -178 701 -1735 707 -1741 4 -4
87 191 185 435 98 244 181 446 184 450 3 4 87 -195 186 -442 99 -247 182 -450
185 -450 6 0 710 1739 710 1753 0 4 -82 7 -182 7 l-183 0 -169 -420 c-93 -231
-173 -420 -176 -420 -4 0 -88 200 -186 445 -98 244 -181 445 -184 445 -3 0
-86 -200 -184 -445z"/>
<path d="M3872 2310 c-10 -25 -101 -251 -203 -502 -101 -251 -185 -454 -187
-450 -1 4 -87 216 -190 472 l-188 465 -203 3 c-123 1 -201 -1 -199 -7 1 -5
179 -444 393 -974 249 -615 393 -960 398 -952 4 8 93 227 198 487 105 260 194
478 197 485 4 6 97 -211 206 -483 110 -272 202 -494 205 -494 6 0 768 1880
778 1919 5 21 3 21 -195 21 -150 0 -201 -3 -205 -12 -256 -636 -370 -914 -375
-920 -4 -4 -94 210 -201 475 -107 265 -198 489 -202 497 -6 11 -13 3 -27 -30z"/>
<path d="M1222 2305 c-188 -42 -311 -161 -371 -358 -27 -88 -44 -268 -35 -374
l7 -83 41 0 41 0 0 163 c1 123 5 177 19 226 45 164 119 267 234 323 58 29 75
32 176 36 358 14 536 -164 536 -535 0 -182 -45 -287 -232 -540 -158 -215 -163
-224 -237 -413 -34 -86 -75 -175 -92 -198 -44 -60 -106 -93 -182 -99 -53 -4
-67 -2 -97 19 -20 13 -46 44 -59 72 -22 43 -25 64 -25 155 -1 58 1 131 4 161
l4 55 -36 3 c-45 4 -48 -4 -55 -168 -8 -193 30 -307 121 -353 87 -45 257 -16
344 59 55 47 80 91 142 254 64 168 68 175 236 400 134 181 187 268 217 361 25
74 39 207 32 294 -25 302 -140 466 -369 527 -96 25 -281 32 -364 13z"/>
<path d="M11200 2204 c-47 -9 -125 -37 -173 -61 -141 -71 -207 -205 -185 -377
11 -77 37 -134 84 -180 50 -48 63 -55 339 -167 127 -51 240 -103 253 -116 28
-28 29 -86 2 -131 -43 -70 -201 -110 -321 -82 -100 24 -150 58 -166 116 l-8
31 -128 -45 c-146 -51 -142 -44 -91 -149 92 -191 414 -288 679 -206 138 43
239 122 291 228 27 55 29 69 29 170 0 98 -3 116 -26 165 -32 70 -79 123 -135
156 -24 14 -143 65 -265 114 -122 49 -232 96 -245 105 -28 18 -31 52 -9 94 31
61 176 84 268 43 26 -12 50 -28 53 -36 3 -9 11 -16 16 -16 11 0 240 80 247 87
3 2 -5 23 -16 47 -63 128 -198 204 -378 211 -49 2 -101 1 -115 -1z"/>
<path d="M16817 2194 c-136 -33 -255 -119 -297 -216 -34 -78 -38 -179 -11
-268 19 -61 31 -81 74 -124 49 -48 68 -58 300 -151 136 -55 261 -111 279 -125
25 -21 31 -33 31 -67 0 -93 -80 -151 -222 -160 -137 -10 -274 50 -283 122 -2
14 -5 26 -8 27 -3 1 -62 -18 -132 -42 -144 -50 -137 -41 -92 -137 70 -146 258
-243 474 -244 180 -1 341 59 435 164 76 83 99 146 99 267 0 85 -3 102 -30 160
-21 45 -48 81 -87 116 -51 47 -79 61 -303 150 -285 115 -300 125 -268 191 12
24 32 44 56 56 73 36 213 20 263 -30 l25 -25 107 37 c156 55 147 48 122 97
-85 167 -316 255 -532 202z"/>
<path d="M8550 1515 l0 -685 135 0 135 0 0 275 0 275 245 0 245 0 0 -275 0
-275 135 0 135 0 0 685 0 685 -135 0 -135 0 0 -270 0 -270 -245 0 -245 0 0
270 0 270 -135 0 -135 0 0 -685z"/>
<path d="M10040 1515 l0 -685 145 0 145 0 0 685 0 685 -145 0 -145 0 0 -685z"/>
<path d="M12230 1515 l0 -685 140 0 140 0 0 255 0 255 178 0 c250 0 332 22
433 117 103 96 145 202 136 341 -4 70 -11 96 -40 156 -60 120 -167 207 -288
235 -25 6 -187 11 -371 11 l-328 0 0 -685z m680 388 c79 -49 100 -144 49 -218
-42 -61 -57 -65 -263 -65 l-186 0 0 156 0 156 183 -4 c167 -3 185 -5 217 -25z"/>
<path d="M13660 1515 l0 -685 450 0 450 0 0 135 0 135 -310 0 -310 0 0 140 0
140 268 2 267 3 3 138 3 137 -271 0 -270 0 0 135 0 135 290 0 290 0 0 135 0
135 -430 0 -430 0 0 -685z"/>
<path d="M15010 1516 l0 -686 135 0 135 0 0 255 0 256 131 -3 131 -3 101 -252
102 -253 146 0 146 0 -113 280 -113 281 37 23 c58 37 121 112 154 183 96 212
-1 463 -219 566 l-68 32 -352 3 -353 3 0 -685z m635 403 c22 -6 56 -28 77 -49
34 -34 38 -43 38 -89 0 -60 -17 -98 -60 -135 l-32 -26 -194 0 -194 0 0 155 0
155 163 0 c89 0 180 -5 202 -11z"/>
<path d="M1243 2126 c-170 -55 -266 -229 -236 -426 17 -106 59 -185 144 -264
39 -37 76 -65 82 -63 7 2 18 15 26 29 14 24 12 27 -41 81 -52 53 -126 172
-114 184 9 10 131 -84 188 -145 128 -139 131 -241 10 -430 -33 -50 -69 -118
-82 -151 -24 -65 -49 -95 -76 -89 -38 7 -40 34 -11 120 15 46 27 93 27 105 0
13 12 31 30 44 56 42 75 120 45 179 -18 35 -43 50 -85 50 -88 0 -126 -68 -96
-168 28 -90 29 -122 7 -186 -51 -147 -2 -243 109 -213 50 13 77 41 120 127 21
42 63 116 94 165 97 155 110 261 48 388 -39 78 -160 198 -271 267 l-72 45 5
47 c8 78 62 162 130 206 49 30 153 41 220 22 103 -29 191 -122 227 -242 31
-101 23 -193 -26 -322 -35 -94 -36 -100 -19 -113 10 -7 27 -13 39 -13 23 0 30
14 76 153 46 139 36 292 -28 423 -40 82 -86 129 -160 166 -60 29 -77 33 -167
35 -65 2 -116 -2 -143 -11z"/>
</g>
</svg>
